<svg width="24" height="24" viewBox="0 0 24 24" fill="none" xmlns="http://www.w3.org/2000/svg">
<g clip-path="url(#clip0_1_3343)">
<path d="M12 0C5.37301 0 0 5.40069 0 12.0618C0 18.1088 4.432 23.1024 10.206 23.9749V15.2582H7.23702V12.0879H10.206V9.97815C10.206 6.48522 11.899 4.95238 14.787 4.95238C16.17 4.95238 16.902 5.05591 17.248 5.10215V7.86931H15.278C14.052 7.86931 13.624 9.03835 13.624 10.3551V12.0879H17.217L16.73 15.2582H13.624V24C19.481 23.2019 24 18.1681 24 12.0618C24 5.40069 18.627 0 12 0Z" fill="white"/>
</g>
<defs>
<clipPath id="clip0_1_3343">
<rect width="24" height="24" fill="white"/>
</clipPath>
</defs>
</svg>
