<svg width="24" height="24" viewBox="0 0 24 24" fill="none" xmlns="http://www.w3.org/2000/svg">
<g clip-path="url(#clip0_1_3345)">
<path d="M12 24C18.6274 24 24 18.6274 24 12C24 5.37258 18.6274 0 12 0C5.37258 0 0 5.37258 0 12C0 18.6274 5.37258 24 12 24Z" fill="white"/>
<path d="M19.5862 7.5063C19.028 7.75025 18.4281 7.91455 17.7984 7.98859C18.4413 7.60961 18.9351 7.00906 19.1671 6.29336C18.5659 6.64437 17.8995 6.89952 17.1902 7.03706C16.6232 6.4415 15.8133 6.06934 14.9181 6.06934C12.9084 6.06934 11.4317 7.91516 11.8856 9.83132C9.29931 9.70374 7.00573 8.48398 5.47017 6.63005C4.65464 8.00727 5.04725 9.80892 6.43299 10.7213C5.92344 10.7051 5.44297 10.5675 5.02386 10.3379C4.98971 11.7574 6.02333 13.0855 7.52035 13.3811C7.08223 13.4981 6.60242 13.5255 6.11437 13.4334C6.51012 14.6507 7.65942 15.5362 9.02242 15.5611C7.71379 16.5712 6.06504 17.0224 4.41379 16.8307C5.79131 17.7001 7.42805 18.2073 9.18551 18.2073C14.9649 18.2073 18.2302 13.4022 18.0329 9.09262C18.6411 8.66009 19.169 8.12054 19.5862 7.5063Z" fill="#242424"/>
</g>
<defs>
<clipPath id="clip0_1_3345">
<rect width="24" height="24" fill="white"/>
</clipPath>
</defs>
</svg>
