<svg width="243" height="20" viewBox="0 0 243 20" fill="none" xmlns="http://www.w3.org/2000/svg">
<path d="M120.991 0C54.583 0 0.542014 4.46667 0.00429291 9.9333C-0.264568 12.6 12.103 15.1333 34.9562 17.0222C57.5405 18.9333 87.9217 19.9778 120.185 20H120.991C187.4 20 241.442 15.5333 241.979 10.0667C242.517 4.55555 188.476 0.0444444 120.991 0ZM179.604 13.3333L174.495 13.7556L174.226 13.7778C165.354 14.5111 157.826 14.6889 145.996 14.4C133.628 14.0889 122.604 13.5333 112.657 12.8667C98.4073 11.9111 83.0822 10.6667 73.1344 9.3778C63.1866 8.04444 59.9602 6.64444 73.941 5.48889L74.2098 5.46666L79.3182 5.04444C83.0822 4.73333 89.266 4.73333 93.299 5.04444L109.161 6.35555C112.925 6.66666 112.925 7.17778 109.161 7.51111L99.7516 8.28889L100.02 8.31111C110.506 9.6222 124.218 10.7556 140.081 11.6222L140.349 11.6444L149.76 10.8667C153.524 10.5556 159.707 10.5556 163.74 10.8667L179.604 12.1778C183.636 12.5111 183.636 13.0222 179.604 13.3333Z" fill="#BFF0D6"/>
</svg>
